<svg viewBox="0 0 128 128" xmlns="http://www.w3.org/2000/svg"><path d="M56.8 28.2c0 3.1-2.6 5.6-5.7 5.6h-1c-5.8 0-10.4-4.7-10.4-10.4v-3.8c0-3.6-4.8-4.8-6.5-1.6-3.1 6-3.7 13.1-1.8 19.5l4.8 15.8c1.4 4.5 1.2 9.4-.5 13.8L27.6 89c-6 16 5.8 33 22.9 33h27c17.1 0 28.9-17 22.9-33l-8.3-19.9c-1.6-3.8-1.8-8-.5-11.8l1.7-5.3c2.1-6.8 2.1-14.1 0-21-.9-2.8-4.9-2.1-4.9.8 0 6.9-5.6 12.6-12.6 12.6-2.5 0-4.5-2-4.5-4.4l-.9-36H57.5l-.7 24.2z" fill="#35D4D8"/><path d="M30.6 89l8.2-21.9c1.7-4.4 1.8-9.3.5-13.8l-4.8-15.8C32.5 31 33.2 24 36.3 18c.4-.7.9-1.2 1.5-1.5-1.5-.7-3.6-.3-4.5 1.5-3.1 6-3.7 13-1.8 19.5l4.8 15.8c1.4 4.5 1.2 9.4-.5 13.8L27.6 89c-6 16 5.8 33 22.9 33h3c-17.1 0-28.9-17-22.9-33z" fill="#FFF"/><path d="M94.4 99.3c-.9 0-1.7-.3-2.4-.8l-5.3-4c-3.2-2.4-7.1-3.8-11.1-3.8H58c-4.1 0-7.9-1.9-10.2-5-2.3-3.2-2.9-7.2-1.7-11l3.6-9.3c2.6-6.8 3.2-14.2 1.5-21.4l-.2-.8c-.3-1.1 0-2.3.7-3.2.7-.9 1.8-1.4 3-1.4.6 0 1.2.2 1.8.4l4.5 2.4c3.7 2 11.4 5.8 14.6 5.8 3 0 6-.9 8.5-2.5.7-.5 1.5-.7 2.3-.7 1.3 0 2.6.6 3.5 1.7.8 1.1 1.1 2.5.8 3.9-.1.4-.2.9-.4 1.3l-1.7 5.3c-1.4 4.6-1.2 9.5.6 13.9l8.3 19.8c.7 1.8 1 3.7.8 5.6-.1 2.3-1.8 3.8-3.9 3.8z" fill="#FFF"/><path d="M56.9 46.1c0 1.1.9 2 2 2h10.3c1.1 0 2-.9 2-2L70.2 4H57.8l-.9 42.1z" fill="#FFE3C1"/><path d="M69.6 46.2c0 .2-.1.3-.1.4-.1.1-.2.2-.4.2H58.9c-.2 0-.3-.1-.4-.2-.1-.1-.1-.2-.1-.4L59.3 4h-3l-.9 42.1c0 .9.3 1.8 1 2.5s1.6 1.1 2.5 1.1h10.3c.9 0 1.8-.4 2.5-1.1.7-.7 1-1.6 1-2.5L71.7 4h-3l.9 42.2z" fill="#62355C"/><path fill="#62355C" d="M58.5 9h11v3h-11zM58 32.5h12v3H58zm0 5h12v3H58zM57.5 15h13v3h-13zm0 6h13v3h-13zm0 6h13v3h-13zm0 15h13v3h-13z"/><path d="M77.5 123.5h-27c-8.6 0-16.4-4.1-21.3-11.2-4.9-7.1-6-15.8-3-23.9l8.2-21.9c1.5-4.1 1.7-8.7.4-12.9L30 37.8c-2-6.8-1.3-14.1 1.9-20.5 1.1-2.1 3.3-3.1 5.5-2.5 2.3.5 3.8 2.5 3.8 4.8v3.8c0 4.9 4 8.9 8.9 8.9h1c2.4 0 4.5-1.9 4.6-4h3c-.1 3.8-3.5 7-7.6 7h-1c-6.6 0-11.9-5.4-11.9-11.9v-3.8c0-1.1-.8-1.7-1.5-1.9s-1.7 0-2.2 1C31.6 24.4 31 31 32.8 37.1l4.8 15.8c1.4 4.8 1.3 10.1-.5 14.8L29 89.5c-2.7 7.1-1.7 14.8 2.6 21.1 4.3 6.3 11.2 9.9 18.8 9.9h27c7.6 0 14.5-3.6 18.8-9.9 4.3-6.3 5.3-14 2.6-21.1l-8.3-19.8c-1.7-4.1-1.9-8.7-.6-12.9l1.7-5.3c2.1-6.6 2.1-13.5 0-20.1-.2-.8-.9-.7-1.1-.7-.3 0-.9.2-.9 1 0 7.8-6.3 14.1-14.1 14.1-3.4 0-6.1-2.6-6.2-5.9h3c0 1.6 1.5 2.9 3.2 2.9 6.1 0 11.1-5 11.1-11.1 0-2 1.4-3.7 3.4-4 2-.3 3.8.8 4.5 2.8 2.2 7.1 2.2 14.7 0 21.9l-1.7 5.3c-1.1 3.5-.9 7.4.5 10.8l8.3 19.9c3 8.1 2 16.8-2.9 23.9-4.8 7.1-12.6 11.2-21.2 11.2z" fill="#62355C"/><path d="M72.5 55.9h-17c-.8 0-1.5-.7-1.5-1.5s.7-1.5 1.5-1.5h17c.8 0 1.5.7 1.5 1.5 0 .9-.7 1.5-1.5 1.5zm0 12h-17c-.8 0-1.5-.7-1.5-1.5s.7-1.5 1.5-1.5h17c.8 0 1.5.7 1.5 1.5 0 .9-.7 1.5-1.5 1.5zm0 14h-17c-.8 0-1.5-.7-1.5-1.5s.7-1.5 1.5-1.5h17c.8 0 1.5.7 1.5 1.5 0 .9-.7 1.5-1.5 1.5zm-.2 12.3l-16 2.4c-1.2.2-2.3-.8-2.3-2v-5.7c0-1.1.9-2 2-2h16c1.1 0 2 .9 2 2v3.3c0 1-.7 1.9-1.7 2z" fill="#7E7784"/><path d="M56 98.1c-1.9 0-3.5-1.6-3.5-3.5v-5.7c0-1.9 1.6-3.5 3.5-3.5h16c1.9 0 3.5 1.6 3.5 3.5v3.3c0 1.7-1.3 3.2-3 3.5l-16 2.4H56zm0-9.7c-.3 0-.5.2-.5.5v5.7c0 .3.3.5.6 0 5v-3.3z" fill="#62355C"/><circle cx="86" cy="86.8" fill="#7E7784" r="3"/><circle cx="93" cy="92.8" fill="#7E7784" r="3"/><path d="M75.4 91.9l-2.8-1.1L78 77.9c.4-.9.5-1.8.5-2.7V58.9h3v16.3c0 1.3-.3 2.7-.8 3.9l-5.3 12.8z" fill="#62355C"/><circle cx="64" cy="25.5" fill="#FFF" r="1"/><circle cx="64" cy="36.5" fill="#FFF" r="1"/><circle cx="61" cy="13.5" fill="#FFF" r="1"/><circle cx="67" cy="13.5" fill="#FFF" r="1"/></svg>