<svg fill="#009cde" width="800" height="800" viewBox="0 -6 36 36" xmlns="http://www.w3.org/2000/svg"><path d="M33.6 24H2.4A2.4 2.4 0 010 21.6V2.4A2.4 2.4 0 012.4 0h31.2A2.4 2.4 0 0136 2.4v19.2a2.4 2.4 0 01-2.4 2.4zM14.032 10.325a.184.184 0 00-.142.07.22.22 0 00-.063.15c0 .021.098.32.308.933l.454 1.326.211.618q.355 1.04.371 1.106a14.561 14.561 0 00-1.259 1.828l-.038.07-.002.025c0 .1.081.182.182.182l.027-.002h-.001 1.218a.335.335 0 00.283-.159l.001-.001 4.032-5.819a.162.162 0 00.033-.097l-.001-.015v.001a.223.223 0 00-.063-.15.183.183 0 00-.141-.07h-1.219a.337.337 0 00-.284.159l-.001.001-1.68 2.466-.695-2.372a.334.334 0 00-.323-.254l-.026.001h.001zm13.978-.111h-.026c-.758 0-1.439.329-1.909.851l-.002.002a2.846 2.846 0 00-.8 1.982v.027-.001c-.002.029-.002.064-.002.098 0 .537.209 1.026.549 1.389l-.001-.001a1.962 1.962 0 001.468.554h-.005c.337-.004.657-.073.949-.197l-.016.006c.295-.111.545-.284.742-.504l.002-.002c-.01.057-.021.105-.034.151l.002-.01a.829.829 0 00-.032.188v.002c0 .168.069.253.206.253h1.091a.32.32 0 00.348-.299v-.001l.648-4.127a.209.209 0 00-.047-.177.194.194 0 00-.157-.08h-1.203c-.147 0-.24.175-.27.522a1.659 1.659 0 00-1.509-.627l.008-.001zm-17.963 0h-.028c-.757 0-1.438.329-1.906.851l-.002.002a2.846 2.846 0 00-.8 1.982v.027-.001a2.024 2.024 0 00.548 1.486l-.001-.001c.354.344.838.556 1.372.556l.096-.002h-.005c.332-.005.647-.074.934-.197l-.016.006c.299-.114.553-.286.758-.505l.001-.001c-.037.098-.06.212-.063.33v.002c0 .168.07.253.206.253h1.09a.32.32 0 00.348-.299v-.001l.649-4.127a.212.212 0 00-.048-.175.194.194 0 00-.157-.08H11.82c-.147 0-.24.175-.269.522a1.688 1.688 0 00-1.51-.628l.008-.001zM32.612 8l-.016-.001a.19.19 0 00-.19.174v.001l-1.028 6.578a.19.19 0 00.047.181.2.2 0 00.154.071h1.05l.032.002a.3.3 0 00.3-.3v-.002l1.026-6.465.001-.022a.263.263 0 00-.053-.158v.001a.193.193 0 00-.14-.061L33.78 8h.001zm-11.67 0a.308.308 0 00-.348.299l-1.027 6.452a.214.214 0 00.047.174.19.19 0 00.156.08h1.305a.253.253 0 00.248-.204v-.002l.285-1.834a.306.306 0 01.111-.205h.001a.485.485 0 01.237-.103h.003c.081-.015.174-.023.269-.024h.001c.084 0 .184.005.3.016a3.077 3.077 0 00.382.02 2.9 2.9 0 001.976-.773l-.002.002a2.86 2.86 0 00.774-2.135v.008a1.53 1.53 0 00-.605-1.35l-.004-.003a2.73 2.73 0 00-1.6-.419h.006zM2.96 8a.3.3 0 00-.332.298V8.3L1.6 14.752a.213.213 0 00.047.174.19.19 0 00.156.08h1.204a.308.308 0 00.348-.299l.285-1.739a.31.31 0 01.11-.205h.001a.485.485 0 01.237-.103h.003a1.58 1.58 0 01.268-.024h.001c.084 0 .184.005.3.016a3.077 3.077 0 00.381.02c.763 0 1.457-.293 1.977-.773l-.002.002a2.862 2.862 0 00.774-2.135v.008a1.53 1.53 0 00-.605-1.35l-.004-.003a2.731 2.731 0 00-1.593-.42h.006zm24.984 5.835l-.048.001a1.08 1.08 0 01-.698-.255l.002.001a.887.887 0 01-.286-.653l.001-.045v-.027c0-.374.151-.713.396-.959.241-.247.577-.4.949-.4h.033-.002l.034-.001c.269 0 .514.099.702.262l-.001-.001a.917.917 0 01.294.674l-.001.048v-.002.024c0 .369-.153.703-.4.94a1.341 1.341 0 01-.949.391h-.025.001zm-17.979 0l-.05.001c-.262 0-.503-.096-.687-.255l.001.001a.9.9 0 01-.278-.651l.001-.047v-.027c0-.374.151-.713.396-.959.241-.247.576-.4.948-.4h.035-.002l.034-.001c.269 0 .514.099.702.262l-.001-.001a.916.916 0 01.293.673l-.001.049v-.002.035c0 .369-.153.701-.4.938a1.374 1.374 0 01-.954.384h-.036.002zm11.907-2.56l.269-1.691a.19.19 0 01.206-.173h-.001.285l.061-.001c.173 0 .344.012.511.035l-.019-.002c.155.028.29.098.396.198a.61.61 0 01.191.444l-.001.038v-.002a1.022 1.022 0 01-.346.901l-.001.001a1.859 1.859 0 01-1.05.24h.006l-.505.016zm-17.979 0l.269-1.691a.189.189 0 01.206-.173h-.001.3a1.765 1.765 0 01.927.186l-.01-.005c.189.121.253.378.19.766a.904.904 0 01-.408.726l-.003.002a3.326 3.326 0 01-1.484.188z"/></svg>