<svg width="601" height="134" fill="none" xmlns="http://www.w3.org/2000/svg"><path d="M581.1 36.4h1.9l1.3-10.8h-3.2c-7.1 0-12.2 4.4-12.2 4.4l-1.8-3.2h-15.5c.2 1.7.3 4-.1 7.3-3.6 29.2-3.5 28.9-7.1 58-.4 3.2-.8 4.3-1.4 6h19c-.4-1.8-.6-2.6-.2-6 1.2-10.1 3.7-30.3 5.7-46.5.4-2.9 2.1-9.2 13.6-9.2zm-59.7 25.4h1.9s-2.1 16.9-2.9 23.7c-.4 3.5-1.6 5.7-5 5.7-2.8 0-4-2.9-3.7-5.5.7-5.4 1.3-10.5 2-16 .6-4.9 4.2-7.9 7.7-7.9zm-.5 33.6l2.5 2.8H537c-.3-2.8-.7-7.2-.3-10.5 2.4-19.9 4.6-37.9 6.4-51.9 1.1-9-3.7-10.1-18.8-10.1-7.6 0-20.5 1.9-20.5 1.9s-.1 2.2-.3 3.3c-.8 6.4-2.1 17.2-2.1 17.2h12.8c.3-2.6.5-4.4.9-7.1.5-4 3-7.7 7.3-7.7 2.7 0 4.3 1.5 3.9 4.7-.4 3.5-.8 6.4-1.2 10.1-.5 3.9-2.2 5.5-8.1 6.8-2.8.6-5.2 1.1-8.1 1.5-5.9 1-10.6 4.6-11.3 10.2-1 7.7-1.9 15.2-2.8 22.8-.8 6.6 5.2 10 12.1 10 5.9 0 14-4 14-4zm-41.1 3.4c4.3 0 11.2-1.1 11.2-1.1l.8-6.6h-5.2c-4.5 0-6-1.9-5-9.5 1.6-13.1 3.8-31.3 5.9-47.7h9l.8-6.9h-9.2s1.4-11.8 2-16.2L472.4 14c-.7 5.8-1 7.9-1.6 13h-5.4l-.8 6.9h5.4c-2.2 18.1-4 32.2-6.4 52.6-1.4 11.1 5.2 12.3 16.2 12.3zM453.3 24c7.1 0 10.2-2.5 10.8-8.3.6-5.8-2-8-8.9-8-7.5 0-10.2 2.5-10.8 8-.6 5.9 1.8 8.3 8.9 8.3zm8.3 2.9h-18.2c.2 1.7.3 4-.1 7.3-3.6 29.2-3.5 28.9-7.1 58-.4 3.2-.8 4.3-1.4 6h19c-.4-1.8-.6-2.6-.2-6 1.6-13.1 8-65.3 8-65.3zm-63.1 72.5c6.6 0 12.8-3.6 12.8-3.6l1.6 2.4h15.5c-.2-1.7-.3-4 .1-7.3 3.6-29.2 7.6-62.3 7.8-63.9H418c.4 1.8.6 2.6.2 5.9-1.2 10.1-4.6 37.5-6.6 53.7-.4 3.5-1.9 4.8-4.6 4.8-2.7 0-3.9-1.5-3.5-4.8 3.6-29.2 7.1-58 7.3-59.6h-18.3c.4 1.8.6 2.6.2 5.9-1.6 13.1-4.9 40.3-6.8 55.9-.9 7.1 3.8 10.6 12.6 10.6zm-38.7-52.7l-1.2 9.4h4.9L360 84.5c-.5 4.3-2 5.9-5.4 5.9-3 0-4.7-1.4-4.2-6.1l8.5-69.6c.5-4.3 2.1-5.5 6.4-5.5 4.4 0 5.3 1.2 4.8 5.3l-2.7 21.9h16.4l2.8-22.8c1.4-11.3 1.9-12.2 1.9-12.2-6.4-1.2-11.6-1-22.2-1-17.4 0-24.1 1.5-25.4 12.6l-8.8 72.1c-1.5 12 1.7 14.4 21.4 14.4 8.3 0 18.9-.6 23.5-1.2l6.3-51.5h-23.5v-.1zm-83.5 8.8l2.2-18.3c.3-2.8 2.2-4.1 5-4.1 3.1 0 4.2 1.2 3.9 4l-2.3 18.4h-8.8zm25 6.7l3-24.8c1.3-10.9-3-11.8-20.4-11.8-15.8 0-21.7 1.2-23.1 12.2l-5.9 48.4c-1.2 10 1.5 13.1 19.2 13.1 18.9 0 22.9-2.4 24.2-13.1l2-16.6h-16.8l-2.1 16.7c-.4 3.3-1.8 5-5 5s-4.5-1.1-4.1-4.7l3-24.5h26v.1zm-69.1-28.9c2.8 0 4.2 1.2 3.9 4.4l-5.9 48c-.5 3.9-2.2 5.4-4.9 5.4-2.8 0-4.2-1.5-3.7-5.4l5.9-48c.3-3.1 2.2-4.4 4.7-4.4zm-6 83.8c-.3 2.5-2.4 4-5.1 4-2.7 0-4.2-1.4-3.9-3.7.5-4 1.5-12.6 1.5-12.6h-16.3c-.6 4.8-1 8.4-1.6 13.3-1.2 9.7 2.9 10.4 13.1 10.4h14.5c8.8 0 14-3.3 15.1-12.5 2.8-22.8 6-49.1 9.9-80.5.4-3.6 2.2-8.6 2.2-8.6h-13c-1.5 1.4-2.8 3-2.8 3-2.7-2.2-7.7-4.3-12.5-4.3-10.6 0-15.8 2.1-16.8 10.5l-6.1 49.8c-1.2 10 2.6 12.9 13 12.9 3.1 0 8.1 0 11.4-1.1-.8 4.9-1.9 13.6-2.6 19.4zm-45.8-55.3h1.9s-2.1 16.9-2.9 23.7c-.4 3.5-1.6 5.7-5 5.7-2.8 0-4-2.9-3.7-5.5.7-5.4 1.3-10.5 2-16 .6-4.9 4.2-7.9 7.7-7.9zm-.5 33.6l2.5 2.8H196c-.3-2.8-.7-7.2-.3-10.5 2.4-19.9 4.6-37.9 6.4-51.9 1.1-9-3.7-10.1-18.8-10.1-7.6 0-20.5 1.9-20.5 1.9s-.1 2.2-.3 3.3c-.8 6.4-2.1 17.2-2.1 17.2h12.8c.3-2.6.5-4.4.9-7.1.5-4 3-7.7 7.3-7.7 2.7 0 4.3 1.5 3.9 4.7-.4 3.5-.8 6.4-1.2 10.1-.5 3.9-2.2 5.5-8.1 6.8-2.8.6-5.2 1.1-8.1 1.5-5.9 1-10.6 4.6-11.3 10.2-.9 7.7-1.9 15.2-2.8 22.8-.8 6.6 5.2 10 12.1 10 5.9 0 14-4 14-4zm-41.1 3.4c4.3 0 11.2-1.1 11.2-1.1l.8-6.6h-5.2c-4.5 0-6-1.9-5-9.5 1.6-13.1 3.8-31.3 5.8-47.7h9l.8-6.9H147s1.4-11.8 2-16.2L131.3 14c-.7 5.8-1 7.9-1.6 13h-5.4l-.8 6.9h5.4c-2.2 18.1-4 32.2-6.4 52.6-1.2 11.1 5.4 12.3 16.3 12.3zm-31.9-73.1c-6.6 0-12.8 3.6-12.8 3.6l-1.6-2.4H76.9c.2 1.7.3 4-.1 7.3-3.6 29.2-3.5 28.9-7.1 58-.4 3.2-.8 4.3-1.4 6h19c-.4-1.8-.6-2.6-.2-6 1.2-10.1 4.6-37.5 6.6-53.7.3-2.6 2.1-4.8 4.6-4.8 2.8 0 3.9 1.5 3.5 4.8-3.6 29.2-7.1 58-7.3 59.6h18.3c-.4-1.8-.6-2.6-.2-6 1.6-13.1 4.9-40.3 6.8-55.9.9-6.4-3.7-10.5-12.5-10.5zm-45.4-1.6c7.1 0 10.2-2.5 10.8-8.3.6-5.8-2-8-8.9-8-7.5 0-10.2 2.5-10.8 8-.5 5.8 1.8 8.3 8.9 8.3zm8.4 2.8H51.7c.2 1.7.3 4-.1 7.3-3.6 29.2-3.5 28.9-7.1 58-.4 3.2-.8 4.3-1.4 6h19c-.4-1.8-.6-2.6-.2-6 1.6-13.1 8-65.3 8-65.3zM1.7 8.8c.9 27.1 1.7 65.3 1.9 81.5.3 5.1-.1 7.9-.1 7.9h22.1s15.3-61.4 22.5-89c.7-2.9 2.9-7.6 2.9-7.6H38.5s-.3 4.6-.9 7.3c-5.6 27-15.8 68.9-15.8 68.9H21s-.4-42.2-.3-69.6c0-2.5.4-6.6.4-6.6H.9s.8 4.5.8 7.2z" fill="#00bcec"/></svg>